<?xml version="1.0" encoding="UTF-8" standalone="no"?>
<!-- Created with Inkscape (http://www.inkscape.org/) -->

<svg
   version="1.1"
   id="svg1"
   width="507.82666"
   height="124.058"
   viewBox="0 0 507.82666 124.058"
   sodipodi:docname="SLAB Builders Master Logo.pdf"
   xmlns:inkscape="http://www.inkscape.org/namespaces/inkscape"
   xmlns:sodipodi="http://sodipodi.sourceforge.net/DTD/sodipodi-0.dtd"
   xmlns="http://www.w3.org/2000/svg"
   xmlns:svg="http://www.w3.org/2000/svg">
  <defs
     id="defs1">
    <clipPath
       clipPathUnits="userSpaceOnUse"
       id="clipPath1">
      <path
         d="M 13.0436,76.3102 H 183.239 V 11.443 H 13.0436 Z"
         transform="matrix(1,0,0,-1,-13.0435,26.6323)"
         id="path1" />
    </clipPath>
    <clipPath
       clipPathUnits="userSpaceOnUse"
       id="clipPath3">
      <path
         d="M 0,93.043 H 380.87 V 0 H 0 Z"
         transform="matrix(1.3333333,0,0,-1.3333333,0,124.058)"
         id="path3" />
    </clipPath>
  </defs>
  <sodipodi:namedview
     id="namedview1"
     pagecolor="#ffffff"
     bordercolor="#666666"
     borderopacity="1.0"
     inkscape:showpageshadow="2"
     inkscape:pageopacity="0.0"
     inkscape:pagecheckerboard="0"
     inkscape:deskcolor="#d1d1d1"
     showgrid="false">
    <inkscape:page
       x="0"
       y="0"
       width="507.82666"
       height="124.058"
       id="page2"
       margin="0"
       bleed="0" />
  </sodipodi:namedview>
  <g
     id="layer-MC0"
     inkscape:groupmode="layer"
     inkscape:label="Layer 1">
    <g
       opacity="0.75"
       id="g2"
       clip-path="url(#clipPath3)">
      <path
         d="m 21.843219,-49.594794 h 0.269531 v 9.199219 h -0.08203 c -3.580078,0 -5.636719,1.107422 -6.175781,3.316406 -0.05567,0.515625 -0.08203,0.840821 -0.08203,0.972656 0,1.986329 1.306641,3.386719 3.925782,4.207032 1.59375,0.445312 2.396484,0.711914 2.414062,0.796875 v 10.722656 c -4.391602,-0.952148 -7.787109,-1.962891 -10.183594,-3.035156 l -2.3203122,-1.429688 c -3.2197266,-2.53125 -4.8281251,-5.865234 -4.8281251,-10.007812 v -1.511719 c 0,-5.255859 2.6777344,-9.131836 8.0390623,-11.625 2.789063,-1.069336 5.794922,-1.605469 9.023438,-1.605469 z m 1.875,0 H 24.0815 c 8.147461,0 13.388672,2.771485 15.726563,8.308594 0.773437,1.875 1.160156,3.27832 1.160156,4.207031 -0.28125,0.650391 -0.667969,0.972656 -1.160156,0.972656 -1.119141,0.181641 -3.351563,0.269532 -6.703125,0.269532 -2.141602,0 -3.210938,-0.205078 -3.210938,-0.621094 l -1.429687,-2.144531 c -1.40625,-1.195313 -2.988282,-1.792969 -4.746094,-1.792969 z m 0,18.855469 h 0.09375 c 4.763672,1.016602 8.396484,2.085937 10.898437,3.210937 4.945313,2.525391 7.417969,6.457032 7.417969,11.800782 v 1.523437 c 0,3.767578 -1.400391,7.0136721 -4.195312,9.7382815 -3.445313,2.9765625 -8.185547,4.46484375 -14.214844,4.46484375 V -9.5635438 c 3.169922,0 5.4375,-0.8320312 6.796875,-2.4960942 0.413086,-0.92871 0.621094,-1.734375 0.621094,-2.414062 0,-2.695313 -2.472657,-4.511719 -7.417969,-5.449219 z m -12.867188,15.632812 c 2.147461,0 3.222657,0.301758 3.222657,0.902344 0.9375,1.977539 2.159179,3.228516 3.667968,3.75 1.631836,0.5947268 3.087891,0.8906252 4.371094,0.8906252 v 9.56250005 h -0.351562 c -8.54004,0 -14.3496099,-2.97949215 -17.4257818,-8.94140625 -1.0166015,-2.185547 -1.5234374,-3.732422 -1.5234374,-4.640625 v -0.175781 c 0,-0.773438 0.7734375,-1.160157 2.3203125,-1.160157 2.7568359,-0.123046 4.6640625,-0.1875 5.7187497,-0.1875 z m 35.405274,-34.582031 h 9.117187 c 0.708985,0.158203 1.066406,0.515625 1.066406,1.078125 V -0.00104375 H 46.432086 C 45.594195,-0.19440313 45.17818,-0.58112188 45.17818,-1.1612 v -47.449219 c 0.146484,-0.717773 0.506836,-1.078125 1.078125,-1.078125 z m 11.789062,39.585938 h 20.015625 c 0.773438,0.1962888 1.160156,0.5830076 1.160156,1.160156 v 7.78125 c 0,0.58007812 -0.416015,0.96679687 -1.242187,1.16015625 H 58.045367 Z m 40.857422,-39.585938 h 8.753911 c -3.87598,13.798828 -6.52735,23.033203 -7.957036,27.703125 l 0.09375,0.175781 c -1.790039,6.375 -2.891601,10.13086 -3.304687,11.261719 -1.96875,6.3134768 -3.070313,9.70898462 -3.304688,10.183594 -0.313476,0.24316406 -0.583008,0.36328125 -0.808594,0.36328125 H 83.258258 C 82.546344,-0.14752813 82.191852,-0.50787969 82.191852,-1.0791688 V -1.25495 c 0.591796,-1.9921875 4.584961,-14.261719 11.976562,-36.808594 l 3.65625,-10.992187 c 0,-0.225586 0.357422,-0.436524 1.078125,-0.632813 z m 10.453121,0 c 0.78809,0 1.41211,1.042969 1.875,3.128906 9.53028,28.96875 14.44336,44.0712896 14.74219,45.304688 v 0.1757812 c -0.14941,0.72070317 -0.5039,1.07812505 -1.0664,1.07812505 h -9.03516 c -0.72656,0 -1.28906,-1.01074215 -1.6875,-3.03515625 -0.12598,-0.2724609 -1.07813,-3.28125 -2.85938,-9.023438 H 98.633258 c 1.365234,-4.664062 2.288082,-7.939453 2.765622,-9.832031 h 7.14844 l -3.65625,-12.246094 c 2.85938,-10.201171 4.34766,-15.386718 4.46484,-15.550781 z m 21.30762,0 h 10.00781 v 49.68750025 h -10.18359 c -0.7207,-0.14648438 -1.07812,-0.50683594 -1.07812,-1.07812505 V -48.516669 c 0,-0.585937 0.41601,-0.975586 1.2539,-1.171875 z m 11.61328,0 h 6.16407 c 6.61523,0 11.14453,0.984375 13.58203,2.953125 3.33398,2.203125 5.0039,5.63086 5.0039,10.277344 0,4.438477 -1.75488,7.833984 -5.26172,10.183594 3.1084,1.195312 5.25293,3.076172 6.4336,5.636718 0.82617,1.69629 1.24219,3.603516 1.24219,5.71875 v 0.257813 c 0,6.7353516 -3.2461,11.2617187 -9.73829,13.5820312 -2.27343,0.72070317 -4.56738,1.07812505 -6.8789,1.07812505 H 142.27681 V -9.739325 h 9.11719 c 4.46777,0 6.70313,-1.787109 6.70313,-5.367188 v -0.527343 c 0,-2.030274 -0.80567,-3.459961 -2.41407,-4.289063 -1.17187,-0.65625 -3.16992,-0.984375 -5.98828,-0.984375 h -7.41797 v -9.65625 h 6.25782 c 3.63281,0 5.77734,-0.624023 6.43359,-1.875 0.47461,-0.858398 0.71484,-1.810547 0.71484,-2.859375 0,-1.842773 -0.59472,-3.09375 -1.78125,-3.75 -0.98437,-0.591797 -2.80664,-0.890625 -5.46093,-0.890625 h -6.16407 z m 0,0"
         style="fill:#c24f5d;fill-opacity:1;fill-rule:nonzero;stroke:none"
         aria-label="SLAB"
         transform="matrix(1.3333333,0,0,1.3333333,17.391333,88.548267)"
         clip-path="url(#clipPath1)"
         id="path2" />
    </g>
    <path
       id="path4"
       d="m 5.6709359,-2.2949419 h 7.5234371 c 2.780274,0 4.710938,-0.4009345 5.789063,-1.20573 1.078125,-0.8106485 1.617187,-2.1919702 1.617187,-4.1439651 0,-1.8876112 -0.606445,-3.312831 -1.816406,-4.272732 -1.21289,-0.959902 -3.005859,-1.439853 -5.378906,-1.439853 H 5.6709359 Z M 11.881873,-25.625231 H 5.6709359 v 10.102378 H 11.63578 c 2.882812,0 4.886718,-0.386302 6.011718,-1.158906 1.125,-0.772603 1.6875,-2.077835 1.6875,-3.921549 0,-1.832007 -0.544921,-3.128459 -1.628906,-3.88643 -1.078125,-0.755045 -3.020508,-1.135493 -5.824219,-1.135493 z M 3.1045297,-5.4316379e-4 V -27.91963 h 9.2343753 c 1.608398,0 2.882812,0.09072 3.820312,0.269241 0.94336,0.172665 1.757813,0.462391 2.4375,0.866252 1.060547,0.594086 1.889649,1.422293 2.484375,2.481697 0.591797,1.05355 0.890625,2.230015 0.890625,3.523541 0,1.398881 -0.363281,2.619243 -1.089844,3.664014 -0.726562,1.047697 -1.746093,1.834934 -3.058593,2.364636 1.6875,0.368742 3.014648,1.194023 3.984375,2.481696 0.966797,1.28182 1.453125,2.8621455 1.453125,4.7409772 0,1.6330032 -0.392578,3.0552963 -1.171875,4.2727324 -0.773438,1.211583 -1.848633,2.0895417 -3.222657,2.63387608 -0.5625,0.22826927 -1.415039,0.38630183 -2.554687,0.47995076 -1.133789,0.09364893 -2.961914,0.14047339621 -5.484375,0.14047339621 z M 27.763709,-27.91963 h 2.566407 v 17.594292 c 0,3.0904151 0.632812,5.3321363 1.898437,6.7193111 1.271485,1.3901013 3.316406,2.0836886 6.128906,2.0836886 2.81836,0 4.869141,-0.6935873 6.152344,-2.0836886 1.289063,-1.3871748 1.933594,-3.628896 1.933594,-6.7193111 V -27.91963 h 2.554687 v 17.9454759 c 0,3.5528062 -0.890625,6.2335068 -2.671875,8.0421018 -1.78125,1.80274186 -4.438476,2.7041128 -7.96875,2.7041128 -3.509765,0 -6.152343,-0.89551788 -7.933593,-2.6924067 -1.775391,-1.8027419 -2.660157,-4.486369 -2.660157,-8.0538079 z M 55.165077,-5.4316379e-4 V -27.91963 h 2.636718 V -5.4316379e-4 Z m 9.046875,0 V -27.91963 H 66.84867 V -2.2949419 H 81.110389 V -5.4316379e-4 Z M 86.966834,-2.2949419 h 5.402344 c 2.109375,0 3.647461,-0.07609 4.617188,-0.2341223 0.975586,-0.1551061 1.784179,-0.4243468 2.425781,-0.8077221 1.420903,-0.8428403 2.478513,-2.1334396 3.175783,-3.8747244 0.69433,-1.7383582 1.04297,-3.9800793 1.04297,-6.7193103 0,-2.613391 -0.33692,-4.787802 -1.00782,-6.520307 -0.67382,-1.738358 -1.67285,-3.046517 -2.999996,-3.921549 -0.679687,-0.459465 -1.517578,-0.78431 -2.507812,-0.971608 -0.993164,-0.187297 -2.671875,-0.280946 -5.039063,-0.280946 H 86.966834 Z M 90.962928,-27.91963 h 1.898438 c 2.296875,0 4.019531,0.122914 5.167968,0.362889 1.154297,0.242902 2.147466,0.629204 2.976566,1.158906 1.71679,1.085742 3.02929,2.686554 3.9375,4.799508 0.90527,2.11588 1.35937,4.644401 1.35937,7.585563 0,3.17821 -0.49804,5.8472048 -1.48828,8.0069833 -0.98437,2.1627049 -2.44336,3.7664428 -4.37109,4.8112137 -0.814456,0.43019976 -1.81055,0.73748531 -2.988284,0.92478317 -1.171875,0.1814448 -2.964844,0.26924066621 -5.378907,0.26924066621 H 84.400428 V -27.91963 Z M 111.46195,-5.4316379e-4 V -27.91963 h 18.28125 v 2.294399 h -15.71484 v 10.172615 h 14.36719 v 2.224162 h -14.36719 v 10.9335121 h 16.18359 V -5.4316379e-4 Z M 137.51566,-14.785368 h 7.40625 c 2.60157,0 4.47071,-0.438979 5.61328,-1.322791 1.14844,-0.889665 1.72266,-2.323664 1.72266,-4.307851 0,-0.904297 -0.18164,-1.723725 -0.53906,-2.458284 -0.36035,-0.731632 -0.87598,-1.322791 -1.54688,-1.767624 -0.51562,-0.351183 -1.13379,-0.599938 -1.85156,-0.749191 -0.7207,-0.155106 -1.9043,-0.234122 -3.55078,-0.234122 h -7.25391 z m -2.5664,14.78482483621 V -27.91963 h 9.3164 c 2.15625,0 3.71778,0.09072 4.6875,0.269241 0.9668,0.172665 1.81055,0.462391 2.53125,0.866252 1.10157,0.617498 1.94824,1.474971 2.54297,2.575346 0.5918,1.094522 0.89063,2.33537 0.89063,3.722545 0,1.717872 -0.38672,3.166504 -1.16016,4.342969 -0.77344,1.170611 -1.89258,2.010525 -3.35156,2.516815 1.13086,0.374595 1.94531,0.956975 2.4375,1.744211 0.49219,0.781383 0.83789,2.3617089 1.04297,4.740977 l 0.36328,4.1790835 c 0.0527,0.664322 0.15527,1.211583 0.30469,1.6388562 0.14648,0.43019978 0.34277,0.74626492 0.58593,0.94819542 v 0.37459571621 h -2.84765 C 152.14359,-0.28734301 152.01762,-0.66779178 151.91801,-1.1360364 c -0.10254,-0.4682447 -0.17578,-1.0418444 -0.22266,-1.7207991 l -0.32812,-3.6991327 c -0.1875,-2.5519333 -0.64161,-4.1790838 -1.35938,-4.8814508 -0.7207,-0.702367 -2.16797,-1.05355 -4.34766,-1.05355 h -8.14453 V -5.4316379e-4 Z M 158.74418,-8.452359 h 2.55469 c 0.0293,2.2007498 0.72656,3.9069163 2.08593,5.1155727 1.36524,1.2115831 3.28711,1.814448 5.76563,1.814448 2.1709,0 3.8789,-0.4858038 5.12109,-1.4632645 1.24805,-0.9745341 1.875,-2.323664 1.875,-4.0503162 0,-1.5920317 -0.43945,-2.8006882 -1.3125,-3.628896 -0.86719,-0.834061 -2.60156,-1.586179 -5.20312,-2.25928 l -2.66016,-0.667249 c -2.85351,-0.731632 -4.82519,-1.665195 -5.91797,-2.797762 -1.0957,-1.12964 -1.64062,-2.718745 -1.64062,-4.764389 0,-2.262207 0.82617,-4.076655 2.48437,-5.443344 1.65528,-1.363763 3.86719,-2.04857 6.63281,-2.04857 2.92969,0 5.21778,0.749191 6.86719,2.247574 1.64649,1.49253 2.49024,3.576218 2.53125,6.251066 h -2.58984 c -0.041,-1.98126 -0.66211,-3.511835 -1.86328,-4.588798 -1.2041,-1.082815 -2.8916,-1.62715 -5.0625,-1.62715 -2.04785,0 -3.63282,0.462392 -4.75782,1.381322 -1.125,0.921857 -1.6875,2.224162 -1.6875,3.909843 0,1.27304 0.36622,2.279766 1.10157,3.020178 0.73242,0.734559 1.94531,1.319864 3.63281,1.755917 l 3.26953,0.807722 c 3.2168,0.813575 5.47559,1.83786 6.77344,3.078709 1.30371,1.234995 1.95703,2.9382349 1.95703,5.1155725 0,2.4992558 -0.85547,4.4688098 -2.56641,5.9115886 -1.71093,1.43399926 -4.05175,2.1539254 -7.01953,2.1539254 -3.32812,0 -5.8916,-0.77845672 -7.6875,-2.3412232 -1.79004,-1.55984 -2.68359,-3.7927816 -2.68359,-6.6958984 z m 0,0"
       style="fill:#7b7c81;fill-opacity:1;fill-rule:nonzero;stroke:none"
       aria-label="BUILDERS"
       transform="matrix(1.3333333,0,0,1.3347723,245.11453,88.5476)" />
  </g>
</svg>
